# xmcd
#
# Track frame offsets: 
#        150
#        15096
#        28658
#        41308
#        56137
#        68663
#        80392
#        93966
#        106721
#        121360
#        132541
#        145552
#        159317
#        174458
#        188128
#        201644
#        215472
#        230108
#
# Disc length: 3272 seconds
#
# Revision: 0
# Processed by: cddbd v1.5.2PL0 Copyright (c) Steve Scherf et al.
# Submitted via: ExactAudioCopy v0.95b4
#
DISCID=ee0cc612
DTITLE=Big Joe Turner - The Forties Vol 2 1940-46
DYEAR=1946
DGENRE=Blues
TTITLE0=How Long, How Long Blues
TTITLE1=Shake It and Break It
TTITLE2=Low Down Dirty Shame
TTITLE3=I Can't Give You Anything But Love
TTITLE4=Joe Turner Blues
TTITLE5=Beale Street Blues
TTITLE6=Goin' To Chicago Blues
TTITLE7=Sun Risin' Blues
TTITLE8=Rocks in my Bed
TTITLE9=Blues in the Night (My Mama Done Told Me)
TTITLE10=Cry Baby Blues
TTITLE11=I Got a Gal for Every Day of the Week
TTITLE12=Little Bitty Gal's Blues
TTITLE13=SK Blues Pt1
TTITLE14=SK Blues Pt2
TTITLE15=Johnson and Turner Blues
TTITLE16=My Gals a Jockey
TTITLE17=I'm Still In The Dark
EXTD=
EXTT0=
EXTT1=
EXTT2=
EXTT3=
EXTT4=
EXTT5=
EXTT6=
EXTT7=
EXTT8=
EXTT9=
EXTT10=
EXTT11=
EXTT12=
EXTT13=
EXTT14=
EXTT15=
EXTT16=
EXTT17=
PLAYORDER=
